<?xml version="1.0" standalone="no"?>
<!DOCTYPE svg PUBLIC "-//W3C//DTD SVG 20010904//EN"
 "http://www.w3.org/TR/2001/REC-SVG-20010904/DTD/svg10.dtd">
<svg version="1.0" xmlns="http://www.w3.org/2000/svg"
 width="340.000000pt" height="340.000000pt" viewBox="0 0 340.000000 340.000000"
 preserveAspectRatio="xMidYMid meet">
<metadata>
Created by potrace 1.11, written by Peter Selinger 2001-2013
</metadata>
<g transform="translate(0.000000,340.000000) scale(0.100000,-0.100000)"
fill="#000000" stroke="none">
<path d="M1858 2905 c-2 -2 -30 -5 -63 -9 -62 -6 -89 -11 -140 -23 -16 -4 -32
-7 -35 -8 -17 -3 -124 -41 -171 -61 -192 -79 -406 -256 -516 -426 -15 -24 -30
-45 -34 -48 -14 -12 -98 -191 -118 -253 -41 -123 -64 -264 -64 -392 1 -67 13
-206 20 -217 10 -18 -163 -120 -252 -148 -22 -7 -44 -16 -50 -20 -5 -4 -45
-16 -87 -26 -86 -20 -89 -24 -63 -88 9 -20 13 -41 10 -46 -4 -6 -2 -10 2 -10
5 0 17 -14 26 -30 10 -17 15 -30 11 -30 -4 0 0 -6 11 -13 12 -9 15 -19 10 -28
-5 -8 -5 -11 0 -7 9 9 55 -41 55 -60 0 -7 5 -10 10 -7 6 3 10 0 10 -7 0 -7 9
-19 20 -26 12 -7 18 -16 16 -21 -3 -5 4 -11 16 -14 17 -5 19 -9 10 -20 -9 -11
-8 -14 3 -14 8 0 12 4 9 9 -3 4 0 8 6 8 7 0 14 -9 17 -21 4 -14 8 -17 13 -8 6
9 17 7 43 -9 31 -18 35 -18 30 -4 -6 15 -4 15 14 -1 16 -14 23 -15 29 -6 4 8
3 10 -4 5 -7 -4 -12 -3 -12 1 0 5 20 8 44 9 42 0 43 0 22 -16 -11 -9 -33 -23
-47 -32 -14 -9 -26 -23 -26 -32 0 -8 4 -13 9 -10 4 3 8 0 8 -5 0 -6 5 -11 12
-11 7 0 28 -15 47 -33 19 -17 29 -23 21 -13 -11 14 -2 11 30 -10 25 -16 48
-33 51 -38 4 -5 11 -6 17 -2 5 3 22 -6 36 -19 28 -26 42 -33 31 -15 -12 19 14
10 36 -12 17 -18 21 -19 16 -5 -6 15 -2 17 21 13 15 -2 33 -5 40 -5 7 -1 10
-7 7 -13 -4 -7 -1 -6 7 3 7 8 27 15 46 14 17 0 32 2 32 6 0 4 7 10 16 13 8 3
13 2 11 -2 -3 -4 11 -14 29 -23 30 -15 33 -15 22 -1 -11 13 -10 14 2 10 8 -3
23 -1 33 4 11 5 17 5 17 -2 0 -5 -4 -10 -10 -10 -5 0 -10 -5 -10 -12 0 -6 9
-3 21 8 11 10 30 19 42 20 12 1 34 5 50 9 18 5 27 3 27 -5 0 -6 4 -9 10 -5 10
6 50 -13 62 -30 4 -5 8 -6 8 -2 0 4 10 2 23 -5 12 -7 25 -13 30 -14 4 -1 8 -2
10 -4 1 -1 9 -3 17 -5 172 -46 227 -62 239 -69 10 -6 12 -5 7 2 -8 13 6 16 18
5 4 -4 26 -8 49 -8 24 -1 48 -4 54 -8 6 -4 14 -3 18 2 3 7 15 7 30 1 15 -6 27
-6 30 0 4 7 13 6 26 0 13 -8 19 -7 19 0 0 7 7 7 21 -1 13 -7 19 -7 15 -1 -4 6
5 11 21 12 102 4 121 5 117 9 -10 10 121 37 134 27 9 -6 11 -4 5 9 -5 14 -3
17 10 12 9 -3 19 -2 22 4 4 5 10 7 15 4 5 -3 12 0 15 6 4 5 13 8 21 5 8 -3 14
-2 14 3 0 4 28 20 63 36 34 16 68 35 75 42 7 7 20 13 28 13 8 0 14 5 14 10 0
6 5 10 10 10 6 0 20 9 32 20 12 11 34 25 49 32 15 7 25 16 23 20 -3 4 -1 8 3
8 13 0 132 118 173 170 19 25 38 47 42 50 15 11 26 56 17 72 -13 24 -392 403
-414 416 -27 14 -46 2 -87 -55 -43 -60 -160 -142 -253 -176 -115 -43 -271 -54
-373 -26 -39 11 -42 14 -38 40 2 15 8 34 12 41 5 7 9 15 10 18 8 41 19 60 35
60 15 0 19 8 20 35 1 19 2 38 3 43 8 31 23 147 25 195 1 11 6 15 13 11 7 -5 8
-3 3 6 -4 7 -8 25 -9 39 -1 29 -8 33 -143 89 l-92 38 13 26 c8 14 19 43 26 65
7 21 23 59 35 84 12 26 28 68 36 94 15 50 53 100 68 90 5 -3 22 0 37 5 21 8
29 8 36 -2 6 -10 8 -10 8 1 0 10 14 12 68 7 37 -4 76 -8 87 -10 11 -2 28 -4
38 -5 10 0 16 -5 13 -9 -2 -4 6 -8 19 -8 29 0 106 -34 100 -44 -3 -5 5 -6 17
-3 13 3 20 2 16 -2 -4 -4 6 -15 22 -24 39 -22 93 -66 151 -124 47 -47 49 -48
76 -33 15 8 35 24 43 36 8 12 26 34 40 49 14 14 47 52 73 84 27 31 53 54 59
51 6 -4 8 -2 5 3 -4 6 5 25 21 42 15 17 41 47 57 67 17 19 37 42 45 51 47 51
58 74 48 103 -14 42 -181 208 -273 272 -198 138 -430 215 -670 222 -58 1 -106
2 -107 1z"/>
<path d="M555 820 c3 -5 8 -10 11 -10 2 0 4 5 4 10 0 6 -5 10 -11 10 -5 0 -7
-4 -4 -10z"/>
<path d="M770 646 c0 -2 7 -7 16 -10 8 -3 12 -2 9 4 -6 10 -25 14 -25 6z"/>
<path d="M1060 580 c-9 -6 -10 -10 -3 -10 6 0 15 5 18 10 8 12 4 12 -15 0z"/>
<path d="M1130 581 c0 -6 4 -13 10 -16 6 -3 7 1 4 9 -7 18 -14 21 -14 7z"/>
</g>
</svg>
